<svg width="24" height="24" viewBox="0 0 24 24" fill="none" xmlns="http://www.w3.org/2000/svg">
<path d="M11.4426 18.29C15.4075 18.29 18.6614 15.0293 18.6614 11.0645C18.6614 7.10645 15.4006 3.8457 11.4426 3.8457C7.47778 3.8457 4.22388 7.10645 4.22388 11.0645C4.22388 15.0293 7.48462 18.29 11.4426 18.29ZM8.76294 14.4893C8.20923 14.7285 7.7854 14.3047 8.02466 13.751L9.74048 9.91602C9.86353 9.64258 10.0413 9.47168 10.301 9.3623L14.1155 7.64648C14.6965 7.39355 15.1067 7.81738 14.8674 8.38477L13.1516 12.2129C13.0354 12.4727 12.8577 12.6504 12.5911 12.7666L8.76294 14.4893ZM11.4495 12.0283C11.9758 12.0283 12.3997 11.6045 12.3997 11.0781C12.3997 10.5518 11.9758 10.1211 11.4495 10.1211C10.9231 10.1211 10.4924 10.5518 10.4924 11.0781C10.4924 11.6045 10.9231 12.0283 11.4495 12.0283Z" fill="white"/>
</svg>
