<svg width="20" height="20" viewBox="0 0 20 20" fill="none" xmlns="http://www.w3.org/2000/svg">
    <path fill-rule="evenodd" clip-rule="evenodd" d="M17.0712 2.92885C20.9763 6.83413 20.9763 13.1659 17.0712 17.0712C13.1659 20.9763 6.83413 20.9763 2.92885 17.0712C-0.976281 13.1659 -0.976281 6.83413 2.92885 2.92885C6.83413 -0.976281 13.1659 -0.976281 17.0712 2.92885ZM15.2355 9.4318C15.5493 9.4318 15.8036 9.6862 15.8036 9.99984C15.8036 10.3136 15.5492 10.5679 15.2355 10.5679H10.568V15.2355C10.568 15.5493 10.3136 15.8036 10 15.8036C9.68636 15.8036 9.43213 15.5492 9.43213 15.2355V10.568H4.7643C4.4505 10.568 4.1961 10.3136 4.1961 10C4.1961 9.68636 4.4505 9.43196 4.7643 9.43196H9.43196V4.76414C9.43196 4.4505 9.68636 4.1961 9.99984 4.1961C10.3136 4.1961 10.5679 4.4505 10.5679 4.76414V9.4318H15.2355Z" fill="#F4F7FB" />
</svg>