<svg width="16" height="21" viewBox="0 0 16 21" fill="none" xmlns="http://www.w3.org/2000/svg">
<path d="M13.5 7.33329H12.5833V5.49996C12.5833 2.96996 10.53 0.916626 8.00001 0.916626C5.47001 0.916626 3.41667 2.96996 3.41667 5.49996V7.33329H2.50001C1.49167 7.33329 0.666672 8.15829 0.666672 9.16663V18.3333C0.666672 19.3416 1.49167 20.1666 2.50001 20.1666H13.5C14.5083 20.1666 15.3333 19.3416 15.3333 18.3333V9.16663C15.3333 8.15829 14.5083 7.33329 13.5 7.33329ZM8.00001 15.5833C6.99167 15.5833 6.16667 14.7583 6.16667 13.75C6.16667 12.7416 6.99167 11.9166 8.00001 11.9166C9.00834 11.9166 9.83334 12.7416 9.83334 13.75C9.83334 14.7583 9.00834 15.5833 8.00001 15.5833ZM10.8417 7.33329H5.15834V5.49996C5.15834 3.93246 6.43251 2.65829 8.00001 2.65829C9.5675 2.65829 10.8417 3.93246 10.8417 5.49996V7.33329Z" fill="black" fill-opacity="0.5"/>
</svg>
