<svg width="24" height="24" viewBox="0 0 24 24" fill="none" xmlns="http://www.w3.org/2000/svg">
<path d="M24.0003 3.73204V17.3642C24.0003 19.1042 22.7522 19.8362 21.2282 18.9962L18.9122 17.7002C18.7202 17.5922 18.6002 17.3882 18.6002 17.1722V8.38809C18.6002 5.34005 16.1162 2.85603 13.0681 2.85603H8.18414C7.74014 2.85603 7.42814 2.38802 7.63214 2.00402C8.25615 0.816008 9.50416 0 10.9321 0H20.2682C22.3202 0 24.0003 1.68002 24.0003 3.73204Z" fill="#C4C4C4"/>
<path d="M13.0681 4.65479H3.73201C1.67999 4.65479 -3.05176e-05 6.3348 -3.05176e-05 8.38682V22.0189C-3.05176e-05 23.759 1.24798 24.491 2.772 23.651L7.48804 21.0229C7.99205 20.7469 8.80806 20.7469 9.31206 21.0229L14.0281 23.651C15.5521 24.491 16.8001 23.759 16.8001 22.0189V8.38682C16.8001 6.3348 15.1201 4.65479 13.0681 4.65479ZM10.8001 12.8989H9.30006V14.3989C9.30006 14.8909 8.89206 15.2989 8.40005 15.2989C7.90805 15.2989 7.50004 14.8909 7.50004 14.3989V12.8989H6.00003C5.50803 12.8989 5.10002 12.4909 5.10002 11.9988C5.10002 11.5068 5.50803 11.0988 6.00003 11.0988H7.50004V9.59883C7.50004 9.10683 7.90805 8.69883 8.40005 8.69883C8.89206 8.69883 9.30006 9.10683 9.30006 9.59883V11.0988H10.8001C11.2921 11.0988 11.7001 11.5068 11.7001 11.9988C11.7001 12.4909 11.2921 12.8989 10.8001 12.8989Z" fill="#C4C4C4"/>
</svg>
