<svg width="24" height="24" viewBox="0 0 24 24" fill="none" xmlns="http://www.w3.org/2000/svg">
<path d="M10.9007 15.7086C11.9649 15.7086 12.9464 15.3677 13.7493 14.7996L16.77 17.7917C16.9102 17.9306 17.0951 18 17.2926 18C17.7069 18 18 17.6844 18 17.2804C18 17.091 17.9363 16.9079 17.7961 16.7754L14.7945 13.7959C15.4254 12.9753 15.8014 11.959 15.8014 10.8543C15.8014 8.18411 13.5964 6 10.9007 6C8.21136 6 6 8.1778 6 10.8543C6 13.5245 8.20499 15.7086 10.9007 15.7086ZM10.9007 14.6607C8.79766 14.6607 7.05789 12.9374 7.05789 10.8543C7.05789 8.77117 8.79766 7.04787 10.9007 7.04787C13.0037 7.04787 14.7435 8.77117 14.7435 10.8543C14.7435 12.9374 13.0037 14.6607 10.9007 14.6607Z" fill="#EBEBF5" fill-opacity="0.6"/>
</svg>
