<svg width="24" height="24" viewBox="0 0 24 24" fill="none" xmlns="http://www.w3.org/2000/svg">
<path d="M10.969 19.7109H12.5471C13.1487 19.7109 13.6096 19.3438 13.7502 18.7656L14.0862 17.3047L14.3362 17.2188L15.6096 18C16.1174 18.3203 16.7034 18.2422 17.133 17.8125L18.2268 16.7266C18.6565 16.2969 18.7346 15.7031 18.4143 15.2031L17.6174 13.9375L17.7112 13.7031L19.1721 13.3594C19.7424 13.2188 20.1174 12.75 20.1174 12.1562V10.6094C20.1174 10.0156 19.7502 9.54688 19.1721 9.40625L17.7268 9.05469L17.6252 8.80469L18.4221 7.53906C18.7424 7.03906 18.6643 6.45312 18.2346 6.01562L17.1409 4.92188C16.719 4.5 16.133 4.42188 15.6252 4.73438L14.3518 5.51562L14.0862 5.41406L13.7502 3.95312C13.6096 3.375 13.1487 3.00781 12.5471 3.00781H10.969C10.3674 3.00781 9.90648 3.375 9.76585 3.95312L9.4221 5.41406L9.15648 5.51562L7.89085 4.73438C7.38304 4.42188 6.78929 4.5 6.36742 4.92188L5.28148 6.01562C4.85179 6.45312 4.76585 7.03906 5.09398 7.53906L5.88304 8.80469L5.78929 9.05469L4.34398 9.40625C3.76585 9.54688 3.39867 10.0156 3.39867 10.6094V12.1562C3.39867 12.75 3.77367 13.2188 4.34398 13.3594L5.80492 13.7031L5.89085 13.9375L5.10179 15.2031C4.77367 15.7031 4.8596 16.2969 5.28929 16.7266L6.37523 17.8125C6.80492 18.2422 7.39867 18.3203 7.90648 18L9.1721 17.2188L9.4221 17.3047L9.76585 18.7656C9.90648 19.3438 10.3674 19.7109 10.969 19.7109ZM11.094 18.4922C10.9612 18.4922 10.8909 18.4375 10.8674 18.3125L10.3987 16.375C9.9221 16.2578 9.47679 16.0703 9.14085 15.8594L7.43773 16.9062C7.34398 16.9766 7.24242 16.9609 7.14867 16.8672L6.22679 15.9453C6.14085 15.8594 6.13304 15.7656 6.19554 15.6562L7.24242 13.9688C7.06273 13.6406 6.8596 13.1953 6.7346 12.7188L4.7971 12.2578C4.6721 12.2344 4.61742 12.1641 4.61742 12.0312V10.7266C4.61742 10.5859 4.66429 10.5234 4.7971 10.5L6.72679 10.0312C6.85179 9.52344 7.08617 9.0625 7.22679 8.77344L6.18773 7.08594C6.11742 6.96875 6.12523 6.875 6.21117 6.78125L7.14085 5.875C7.2346 5.78125 7.32054 5.76562 7.43773 5.83594L9.12523 6.85938C9.46117 6.67188 9.93773 6.47656 10.4065 6.34375L10.8674 4.40625C10.8909 4.28125 10.9612 4.22656 11.094 4.22656H12.4221C12.5549 4.22656 12.6252 4.28125 12.6409 4.40625L13.1174 6.35938C13.6018 6.48438 14.0237 6.67969 14.3752 6.86719L16.0705 5.83594C16.1955 5.76562 16.2737 5.78125 16.3752 5.875L17.2971 6.78125C17.3909 6.875 17.3909 6.96875 17.3205 7.08594L16.2815 8.77344C16.4299 9.0625 16.6565 9.52344 16.7815 10.0312L18.719 10.5C18.844 10.5234 18.8987 10.5859 18.8987 10.7266V12.0312C18.8987 12.1641 18.8362 12.2344 18.719 12.2578L16.7737 12.7188C16.6487 13.1953 16.4534 13.6406 16.2659 13.9688L17.3127 15.6562C17.3752 15.7656 17.3752 15.8594 17.2815 15.9453L16.3674 16.8672C16.2659 16.9609 16.1721 16.9766 16.0705 16.9062L14.3674 15.8594C14.0315 16.0703 13.594 16.2578 13.1174 16.375L12.6409 18.3125C12.6252 18.4375 12.5549 18.4922 12.4221 18.4922H11.094ZM11.758 14.3438C13.3909 14.3438 14.7346 13 14.7346 11.3594C14.7346 9.73438 13.3909 8.39062 11.758 8.39062C10.1252 8.39062 8.77367 9.73438 8.77367 11.3594C8.77367 12.9922 10.1174 14.3438 11.758 14.3438ZM11.758 13.1328C10.7893 13.1328 9.99242 12.3359 9.99242 11.3594C9.99242 10.3984 10.7893 9.60156 11.758 9.60156C12.7112 9.60156 13.508 10.3984 13.508 11.3594C13.508 12.3281 12.7112 13.1328 11.758 13.1328Z" fill="#EBEBF5" fill-opacity="0.6"/>
</svg>
