<svg width="20" height="20" viewBox="0 0 20 20" fill="none" xmlns="http://www.w3.org/2000/svg">
<path d="M9.99999 0.833374C4.93999 0.833374 0.833328 4.94004 0.833328 10C0.833328 15.06 4.93999 19.1667 9.99999 19.1667C15.06 19.1667 19.1667 15.06 19.1667 10C19.1667 4.94004 15.06 0.833374 9.99999 0.833374ZM9.99999 3.58337C11.5217 3.58337 12.75 4.81171 12.75 6.33337C12.75 7.85504 11.5217 9.08337 9.99999 9.08337C8.47833 9.08337 7.24999 7.85504 7.24999 6.33337C7.24999 4.81171 8.47833 3.58337 9.99999 3.58337ZM9.99999 16.6C7.70833 16.6 5.68249 15.4267 4.49999 13.6484C4.52749 11.8242 8.16666 10.825 9.99999 10.825C11.8242 10.825 15.4725 11.8242 15.5 13.6484C14.3175 15.4267 12.2917 16.6 9.99999 16.6Z" fill="black" fill-opacity="0.5"/>
</svg>
